<mxfile host="app.diagrams.net" modified="2024-06-12T08:55:32.632Z" agent="Mozilla/5.0 (Windows NT 10.0; Win64; x64) AppleWebKit/537.36 (KHTML, like Gecko) Chrome/125.0.0.0 Safari/537.36 Edg/125.0.0.0" etag="9OVdKZB-JPjLq1k0qhef" version="24.5.3" type="github">
  <diagram name="第 1 页" id="p1hPeh8MkykurTf69vc4">
    <mxGraphModel dx="1455" dy="1074" grid="1" gridSize="10" guides="1" tooltips="1" connect="1" arrows="1" fold="1" page="1" pageScale="1" pageWidth="827" pageHeight="1169" math="0" shadow="0">
      <root>
        <mxCell id="0" />
        <mxCell id="1" parent="0" />
        <mxCell id="Gac8aegBZSiyfCYDPFqV-1" style="edgeStyle=orthogonalEdgeStyle;rounded=0;orthogonalLoop=1;jettySize=auto;html=1;entryX=0;entryY=0.5;entryDx=0;entryDy=0;" parent="1" source="yGaNiQk8HpOq0cUWxVQQ-2" target="yGaNiQk8HpOq0cUWxVQQ-7" edge="1">
          <mxGeometry relative="1" as="geometry" />
        </mxCell>
        <mxCell id="Gac8aegBZSiyfCYDPFqV-2" style="edgeStyle=orthogonalEdgeStyle;rounded=0;orthogonalLoop=1;jettySize=auto;html=1;entryX=0;entryY=0.5;entryDx=0;entryDy=0;" parent="1" source="yGaNiQk8HpOq0cUWxVQQ-2" target="yGaNiQk8HpOq0cUWxVQQ-3" edge="1">
          <mxGeometry relative="1" as="geometry" />
        </mxCell>
        <mxCell id="Gac8aegBZSiyfCYDPFqV-3" style="edgeStyle=orthogonalEdgeStyle;rounded=0;orthogonalLoop=1;jettySize=auto;html=1;entryX=0;entryY=0.5;entryDx=0;entryDy=0;" parent="1" source="yGaNiQk8HpOq0cUWxVQQ-2" target="yGaNiQk8HpOq0cUWxVQQ-5" edge="1">
          <mxGeometry relative="1" as="geometry" />
        </mxCell>
        <mxCell id="Gac8aegBZSiyfCYDPFqV-4" style="edgeStyle=orthogonalEdgeStyle;rounded=0;orthogonalLoop=1;jettySize=auto;html=1;entryX=0;entryY=0.5;entryDx=0;entryDy=0;" parent="1" source="yGaNiQk8HpOq0cUWxVQQ-2" target="yGaNiQk8HpOq0cUWxVQQ-6" edge="1">
          <mxGeometry relative="1" as="geometry" />
        </mxCell>
        <mxCell id="yGaNiQk8HpOq0cUWxVQQ-2" value="网络攻防博弈平台能力" style="rounded=0;whiteSpace=wrap;html=1;" parent="1" vertex="1">
          <mxGeometry x="80" y="360" width="120" height="60" as="geometry" />
        </mxCell>
        <mxCell id="yGaNiQk8HpOq0cUWxVQQ-3" value="平台运维管理子能力" style="whiteSpace=wrap;html=1;rounded=0;" parent="1" vertex="1">
          <mxGeometry x="280" y="300" width="120" height="60" as="geometry" />
        </mxCell>
        <mxCell id="yGaNiQk8HpOq0cUWxVQQ-5" value="训练数据支撑子能力" style="whiteSpace=wrap;html=1;rounded=0;" parent="1" vertex="1">
          <mxGeometry x="280" y="440" width="120" height="60" as="geometry" />
        </mxCell>
        <mxCell id="yGaNiQk8HpOq0cUWxVQQ-6" value="训练计算框架子能力" style="whiteSpace=wrap;html=1;rounded=0;" parent="1" vertex="1">
          <mxGeometry x="280" y="584.5" width="120" height="60" as="geometry" />
        </mxCell>
        <mxCell id="yGaNiQk8HpOq0cUWxVQQ-7" value="数据存储计算框架子能力" style="whiteSpace=wrap;html=1;rounded=0;" parent="1" vertex="1">
          <mxGeometry x="280" y="160" width="120" height="60" as="geometry" />
        </mxCell>
      </root>
    </mxGraphModel>
  </diagram>
</mxfile>
